<?xml version="1.0" encoding="UTF-8"?><svg xmlns="http://www.w3.org/2000/svg" viewBox="0 0 24 14"><path d="m8.71875,0a4.35937,4.5 0 0 0 -4.35937,4.5l0,4.5a4.35937,4.5 0 0 0 8.71875,0l0,-4.5a4.35937,4.5 0 0 0 -4.35937,-4.5m1.45312,9a1.45312,1.5 0 0 1 -2.90625,0l0,-4.5a1.45312,1.5 0 0 1 2.90625,0m8.71875,-4.5a4.35937,4.5 0 0 0 -4.35937,4.5l0,4.5a4.35937,4.5 0 0 0 8.71875,0l0,-4.5a4.35937,4.5 0 0 0 -4.35937,-4.5m1.45312,9a1.45312,1.5 0 0 1 -2.90625,0l0,-4.5a1.45312,1.5 0 0 1 2.90625,0m-17.4375,7.5a1.45312,1.5 0 1 1 -1.45312,-1.5a1.45312,1.5 0 0 1 1.45312,1.5z" fill="currentColor"></path></svg>