<?xml version="1.0" encoding="UTF-8"?><svg xmlns="http://www.w3.org/2000/svg" viewBox="0 0 16 18.63"><g id="a"/><g id="b"><g id="c"><path d="M8,0c2.12,0,4.16,.84,5.66,2.34,1.5,1.5,2.34,3.53,2.34,5.65,0,3.31-2.52,6.77-7.47,10.47-.15,.12-.34,.18-.53,.18s-.38-.06-.53-.18C2.52,14.76,0,11.29,0,7.99,0,5.87,.84,3.84,2.34,2.34,3.84,.84,5.88,0,8,0Zm0,5.32c-.71,0-1.39,.28-1.89,.78s-.78,1.18-.78,1.88,.28,1.38,.78,1.88,1.18,.78,1.89,.78,1.39-.28,1.89-.78,.78-1.18,.78-1.88-.28-1.38-.78-1.88-1.18-.78-1.89-.78Z"/></g></g></svg>