<?xml version="1.0" encoding="UTF-8"?><svg xmlns="http://www.w3.org/2000/svg" viewBox="0 0 20 10"><defs><style>.d{fill:#fff;}</style></defs><g id="a"/><g id="b"><g id="c"><path class="d" d="M5,0C3.67,0,2.4,.53,1.46,1.46c-.94,.94-1.46,2.21-1.46,3.54s.53,2.6,1.46,3.54c.94,.94,2.21,1.46,3.54,1.46H15c1.33,0,2.6-.53,3.54-1.46,.94-.94,1.46-2.21,1.46-3.54s-.53-2.6-1.46-3.54c-.94-.94-2.21-1.46-3.54-1.46H5ZM15,7.5c-.66,0-1.3-.26-1.77-.73-.47-.47-.73-1.11-.73-1.77s.26-1.3,.73-1.77c.47-.47,1.1-.73,1.77-.73s1.3,.26,1.77,.73c.47,.47,.73,1.11,.73,1.77s-.26,1.3-.73,1.77c-.47,.47-1.1,.73-1.77,.73Z"/></g></g></svg>