<?xml version="1.0" encoding="UTF-8"?><svg xmlns="http://www.w3.org/2000/svg" viewBox="0 0 16 12.98"><defs><style>.d{fill:#fff;}</style></defs><g id="a"/><g id="b"><g id="c"><path class="d" d="M16,3.37v7.11c0,.66-.26,1.3-.73,1.76-.47,.47-1.1,.73-1.77,.73H2.5c-.66,0-1.3-.26-1.77-.73-.47-.47-.73-1.1-.73-1.76V3.37L7.75,7.92c.08,.04,.16,.07,.25,.07s.18-.02,.25-.07l7.75-4.55ZM13.5,0c.62,0,1.21,.23,1.67,.64,.46,.41,.75,.97,.82,1.58l-7.99,4.69L.01,2.22C.08,1.61,.37,1.05,.83,.64c.46-.41,1.05-.64,1.67-.64H13.5Z"/></g></g></svg>