<?xml version="1.0" encoding="UTF-8"?><svg xmlns="http://www.w3.org/2000/svg" viewBox="0 0 17 17.62"><defs><style>.d{fill:#fff;}</style></defs><g id="a"/><g id="b"><g id="c"><path class="d" d="M10.89,8.86c.51,.52,.79,1.15,1,2.01l.09,.41,.16,.85c.08,.4,.14,.62,.23,.82,.27,.61,.75,1.23,1.44,1.86,.07,.06,.12,.13,.16,.21,.04,.08,.06,.17,.07,.26,0,.09,0,.18-.04,.26-.03,.08-.08,.16-.14,.23-.06,.07-.13,.12-.22,.16-.08,.04-.17,.06-.26,.06-.09,0-.18-.01-.26-.04-.08-.03-.16-.08-.23-.14-.82-.75-1.41-1.52-1.77-2.31-.13-.3-.22-.59-.31-1.07l-.19-.99v-.06c-.18-.77-.38-1.25-.71-1.59-.65-.66-2.13-.48-2.53,.14-.51,.8-.64,2.16-.23,3.54,.31,1.06,.73,2.1,1.24,3.13,.04,.08,.07,.17,.08,.26,0,.09,0,.18-.03,.27s-.07,.17-.13,.24c-.06,.07-.13,.13-.21,.17-.08,.04-.17,.06-.26,.07-.09,0-.18,0-.27-.04-.09-.03-.16-.08-.23-.14-.07-.06-.12-.14-.16-.22-.54-1.08-.99-2.2-1.33-3.36-.51-1.73-.34-3.49,.39-4.64,.86-1.36,3.39-1.66,4.65-.37Zm-2.14,2.09c.09,0,.18,.01,.26,.04s.16,.08,.23,.14c.07,.06,.12,.13,.15,.21,.04,.08,.06,.17,.06,.26,.05,1.39,.5,2.75,1.31,3.89l.18,.24,.27,.35c.1,.14,.15,.3,.14,.48-.02,.17-.1,.33-.22,.44-.13,.11-.29,.18-.46,.17-.17,0-.33-.07-.46-.19l-.07-.07-.27-.35c-1.09-1.41-1.71-3.13-1.77-4.91,0-.18,.06-.35,.18-.49,.12-.13,.29-.21,.47-.21Zm-3.36-4.59c1.91-1.41,4.41-1.33,6.09-.26,.84,.54,1.48,1.17,1.9,1.89,.09,.15,.12,.34,.07,.51-.05,.17-.16,.32-.31,.41s-.34,.12-.51,.07c-.17-.04-.32-.16-.41-.31-.31-.53-.79-1.01-1.47-1.44-1.23-.79-3.12-.85-4.55,.21-1.48,1.1-2.11,2.97-1.92,4.95,.1,1.11,.44,2.23,1.01,3.36,.08,.16,.09,.35,.03,.52-.06,.17-.18,.31-.34,.39-.16,.08-.35,.09-.52,.04-.17-.06-.31-.18-.39-.34-.64-1.28-1.02-2.56-1.14-3.84-.23-2.41,.55-4.75,2.47-6.17Zm8.31,3.89c.18,0,.36,.05,.49,.17,.13,.12,.21,.29,.22,.47,.03,.55,.16,.99,.4,1.35,.2,.3,.37,.47,.51,.54l.06,.02c.17,.05,.32,.17,.4,.33,.09,.16,.1,.34,.05,.52-.05,.17-.17,.32-.33,.4-.16,.09-.34,.1-.52,.05-.49-.15-.92-.53-1.31-1.11-.38-.57-.58-1.25-.62-2.02,0-.09,0-.18,.04-.26,.03-.08,.08-.16,.14-.23,.06-.07,.13-.12,.21-.16s.17-.06,.26-.07h0ZM6.95,3.39c.04,.08,.06,.17,.06,.26,0,.09-.01,.18-.04,.26-.03,.08-.08,.16-.14,.22s-.13,.12-.22,.15c-1.67,.75-2.89,1.81-3.69,3.21-1.01,1.74-1.28,3.78-1.05,5.49,.01,.09,0,.18-.02,.26-.02,.09-.06,.17-.12,.24-.11,.14-.27,.24-.45,.26-.09,.01-.18,0-.26-.02-.09-.02-.17-.06-.24-.12-.14-.11-.24-.27-.26-.45-.26-1.99,.05-4.32,1.22-6.35,.95-1.64,2.4-2.9,4.31-3.76,.08-.04,.17-.06,.26-.06,.09,0,.18,.01,.26,.04,.08,.03,.16,.08,.22,.14,.06,.06,.12,.13,.15,.21h0Zm2.12-.71c1.66,.03,3.3,.79,4.94,2.25,1.65,1.46,2.64,3.46,2.98,5.94,.01,.09,.01,.18-.01,.27-.02,.09-.06,.17-.11,.24-.05,.07-.12,.13-.2,.18-.08,.05-.16,.08-.25,.09s-.18,0-.27-.02c-.09-.02-.17-.06-.24-.12-.07-.05-.13-.12-.18-.2-.04-.08-.07-.17-.08-.25-.3-2.18-1.14-3.87-2.54-5.11-1.41-1.25-2.76-1.88-4.06-1.9-.09,0-.18-.02-.26-.06-.08-.04-.16-.09-.22-.15-.06-.06-.11-.14-.14-.22-.03-.08-.05-.17-.05-.26s.02-.18,.06-.26c.04-.08,.09-.15,.15-.22,.06-.06,.14-.11,.22-.14,.08-.03,.17-.05,.26-.05Zm-6.22,.01c.06,.07,.11,.14,.13,.23,.03,.08,.04,.17,.04,.26,0,.09-.03,.18-.07,.26-.04,.08-.09,.15-.16,.21-.24,.21-.5,.47-.76,.77-.25,.28-.51,.65-.77,1.1-.04,.08-.1,.15-.17,.2-.07,.06-.15,.1-.24,.12-.09,.02-.18,.03-.27,.02-.09-.01-.17-.04-.25-.08-.08-.04-.15-.1-.2-.18-.05-.07-.09-.15-.12-.24-.02-.09-.03-.18-.02-.26,.01-.09,.04-.17,.09-.25,.26-.47,.57-.91,.93-1.32,.3-.34,.59-.63,.88-.89,.07-.06,.14-.11,.23-.13s.17-.04,.26-.04c.09,0,.18,.03,.26,.07,.08,.04,.15,.09,.21,.16ZM8.81,.01c1.98,.09,3.65,.63,5,1.68,.14,.11,.24,.27,.26,.45,.02,.18-.03,.36-.14,.5-.11,.14-.27,.24-.45,.26-.18,.02-.36-.03-.5-.14-1.13-.87-2.52-1.32-4.24-1.4-1.72-.08-3.13,.26-4.27,.88-.35,.19-.74,.1-.93-.22-.05-.07-.08-.16-.09-.25-.01-.09-.01-.18,0-.27,.02-.09,.06-.17,.11-.24,.05-.07,.12-.13,.2-.18C5.16,.28,6.83-.08,8.81,.01h0Z"/></g></g></svg>