<?xml version="1.0" encoding="UTF-8"?><svg xmlns="http://www.w3.org/2000/svg" viewBox="0 0 17 16.97"><defs><style>.d{fill:#fff;}</style></defs><g id="a"/><g id="b"><g id="c"><path class="d" d="M3.54,0c-.94,0-1.84,.37-2.5,1.04S0,2.6,0,3.54V13.43c0,.72,.22,1.39,.59,1.95l6.21-6.2c.45-.45,1.06-.7,1.7-.7s1.25,.25,1.7,.7l6.21,6.2c.37-.56,.59-1.23,.59-1.95V3.54c0-.94-.37-1.84-1.04-2.5s-1.57-1.04-2.5-1.04H3.54ZM13.46,4.95c0,.38-.15,.74-.42,1-.27,.26-.63,.42-1,.42s-.74-.15-1-.42c-.27-.27-.42-.63-.42-1s.15-.74,.42-1c.27-.27,.63-.42,1-.42s.74,.15,1,.42c.27,.27,.42,.63,.42,1Zm1.95,11.43l-6.21-6.2c-.09-.09-.2-.17-.32-.22-.12-.05-.25-.07-.38-.07s-.26,.02-.38,.07c-.12,.05-.23,.12-.32,.22L1.59,16.38c.56,.37,1.23,.59,1.95,.59H13.46c.72,0,1.39-.21,1.95-.59Z"/></g></g></svg>