<?xml version="1.0" encoding="UTF-8"?><svg xmlns="http://www.w3.org/2000/svg" viewBox="0 0 15 15"><defs><style>.d{fill:#fff;}</style></defs><g id="a"/><g id="b"><g id="c"><path class="d" d="M12.49,1.1c.04-.24-.03-.49-.18-.69-.07-.1-.17-.18-.27-.24-.11-.06-.22-.1-.35-.12-.12-.02-.25-.01-.37,.02-.12,.03-.23,.08-.33,.16-.2,.15-.33,.37-.37,.62l-.42,2.94H5.86l.38-2.68c.02-.12,.02-.25,0-.37s-.08-.24-.15-.34c-.07-.1-.17-.19-.28-.25-.11-.07-.23-.11-.35-.12-.12-.02-.25-.01-.37,.02s-.24,.09-.33,.17c-.1,.08-.18,.17-.24,.28-.06,.11-.1,.23-.11,.36l-.42,2.94h-1.77c-.25,0-.49,.1-.66,.27-.18,.18-.27,.41-.28,.66,0,.25,.1,.49,.27,.66,.18,.18,.41,.27,.66,.27h1.51l-.53,3.74H.94c-.25,0-.49,.1-.66,.27-.18,.17-.27,.41-.27,.66s.1,.49,.27,.66c.18,.18,.41,.27,.66,.27h1.96l-.38,2.67c-.02,.12-.01,.25,.02,.37s.08,.23,.16,.33c.07,.1,.17,.18,.27,.24,.11,.06,.22,.1,.35,.12s.25,.01,.37-.02c.12-.03,.23-.08,.33-.16,.1-.07,.18-.17,.24-.27,.06-.1,.1-.22,.12-.34l.42-2.94h4.36l-.38,2.67c-.02,.12-.01,.25,.02,.37,.03,.12,.08,.23,.16,.33,.07,.1,.17,.18,.27,.24,.11,.06,.22,.1,.35,.12s.25,.01,.37-.02c.12-.03,.23-.08,.33-.16,.1-.07,.18-.17,.24-.27,.06-.1,.1-.22,.12-.34l.42-2.94h1.77c.25,0,.49-.1,.66-.27,.18-.18,.27-.41,.27-.66s-.1-.49-.27-.66c-.18-.18-.41-.27-.66-.27h-1.51l.53-3.74h2.22c.25,0,.49-.1,.66-.27,.18-.18,.27-.41,.27-.66s-.1-.49-.27-.66c-.18-.17-.41-.27-.66-.27h-1.96l.38-2.68Zm-2.54,4.55l-.53,3.74H5.06l.53-3.74h4.36Z"/></g></g></svg>