<?xml version="1.0" encoding="UTF-8"?><svg xmlns="http://www.w3.org/2000/svg" viewBox="0 0 17.5 12.48"><defs><style>.d{fill:#fff;}</style></defs><g id="a"/><g id="b"><g id="c"><path class="d" d="M17.5,3.12c0,.77-.29,1.52-.81,2.09-.52,.57-1.23,.93-2.01,1.01-.77,.08-1.54-.13-2.17-.59-.62-.46-1.05-1.13-1.21-1.89h-.4c-.29,0-.57,.1-.79,.28-.22,.18-.38,.44-.43,.72l-.65,3.23c-.11,.57-.42,1.07-.87,1.44-.45,.37-1.01,.57-1.58,.57h-.4c-.15,.76-.59,1.43-1.21,1.89-.62,.46-1.4,.67-2.17,.59-.77-.08-1.48-.44-2-1.01-.52-.57-.81-1.32-.81-2.09s.29-1.52,.81-2.09c.52-.57,1.23-.93,2-1.01,.77-.08,1.54,.13,2.17,.59,.62,.46,1.05,1.13,1.21,1.89h.4c.29,0,.57-.1,.79-.28,.22-.18,.38-.44,.43-.72l.65-3.23c.11-.57,.42-1.07,.87-1.44,.45-.37,1.01-.57,1.58-.57h.4c.15-.76,.59-1.43,1.21-1.89C13.14,.15,13.92-.06,14.69,.02c.77,.08,1.49,.44,2.01,1.01,.52,.57,.81,1.32,.81,2.09h0Z"/></g></g></svg>