<?xml version="1.0" encoding="UTF-8"?><svg xmlns="http://www.w3.org/2000/svg" viewBox="0 0 16.48 13.97"><defs><style>.d{fill:#fff;}</style></defs><g id="a"/><g id="b"><g id="c"><path class="d" d="M16.23,.24c-.15-.15-.36-.24-.58-.24s-.43,.09-.58,.24l-1.06,1.06-.24-.24c-.08-.08-.17-.14-.27-.18-.1-.04-.21-.07-.32-.07-.11,0-.22,.02-.32,.06-.1,.04-.19,.1-.27,.18-.08,.08-.14,.17-.18,.27-.04,.1-.06,.21-.06,.32,0,.11,.02,.22,.07,.32,.04,.1,.11,.19,.18,.27l.82,.82c.15,.15,.36,.24,.58,.24s.43-.09,.58-.24l1.65-1.64c.15-.15,.24-.36,.24-.58s-.09-.43-.24-.58Zm-6.34,11.27H.73c-.21,.03-.4,.13-.53,.29-.13,.16-.2,.37-.19,.58s.1,.41,.26,.55c.15,.14,.35,.22,.56,.22H9.98c.21-.03,.4-.13,.53-.3,.13-.16,.2-.37,.19-.58-.01-.21-.1-.41-.26-.55-.15-.14-.35-.22-.56-.22h0Zm0-4.93H.73c-.21,.03-.4,.13-.53,.29C.06,7.03-.01,7.24,0,7.45s.1,.41,.26,.55c.15,.14,.35,.23,.56,.23H9.98c.21-.03,.4-.13,.53-.29,.13-.16,.2-.37,.19-.58-.01-.21-.1-.41-.26-.55-.15-.14-.35-.22-.56-.22h0Zm0-4.93H.73c-.21,.03-.4,.13-.53,.29C.06,2.1-.01,2.31,0,2.51s.1,.41,.26,.55c.15,.14,.35,.22,.56,.23H9.98c.21-.03,.4-.13,.53-.3,.13-.16,.2-.37,.19-.58-.01-.21-.1-.41-.26-.55-.15-.14-.35-.22-.56-.22h0Zm6.34,9.28c-.15-.15-.36-.24-.58-.24s-.43,.09-.58,.24l-1.06,1.06-.24-.24c-.16-.15-.36-.23-.58-.23-.22,0-.42,.09-.58,.24-.15,.15-.24,.36-.24,.57,0,.21,.08,.42,.23,.58l.82,.82c.15,.15,.36,.24,.58,.24s.43-.09,.58-.24l1.65-1.64c.15-.15,.24-.36,.24-.58s-.09-.43-.24-.58Zm-1.16-5.34c.08-.08,.17-.14,.27-.18,.1-.04,.21-.07,.32-.07,.11,0,.22,.02,.32,.06,.1,.04,.19,.1,.27,.18,.08,.08,.14,.17,.18,.27s.06,.21,.06,.32c0,.11-.02,.22-.07,.32-.04,.1-.11,.19-.18,.27l-1.65,1.64c-.15,.15-.36,.24-.58,.24s-.43-.09-.58-.24l-.82-.82c-.15-.15-.23-.36-.23-.58,0-.22,.09-.42,.24-.57,.15-.15,.36-.24,.58-.24,.22,0,.42,.08,.58,.23l.24,.24,1.06-1.06Z"/></g></g></svg>