<?xml version="1.0" encoding="UTF-8"?><svg xmlns="http://www.w3.org/2000/svg" viewBox="0 0 16 14"><defs><style>.d{fill:#fff;}</style></defs><g id="a"/><g id="b"><g id="c"><path class="d" d="M10.94,1.05c.08-.18,.08-.39,.01-.57-.07-.18-.21-.33-.4-.41-.18-.08-.39-.08-.57-.01s-.33,.21-.41,.39L4.06,12.92c-.04,.09-.07,.19-.07,.29s.01,.2,.05,.29c.03,.09,.09,.18,.16,.25,.07,.07,.15,.13,.24,.17,.09,.04,.19,.06,.29,.06,.1,0,.2-.02,.29-.06,.09-.04,.18-.09,.25-.17,.07-.07,.13-.16,.16-.25L10.94,1.05h0Z"/><path class="d" d="M12.29,10.82c-.08-.06-.14-.13-.19-.22-.05-.09-.08-.18-.09-.28-.01-.1,0-.2,.02-.29,.03-.1,.07-.18,.13-.26l2.15-2.79-2.15-2.79c-.11-.16-.16-.35-.13-.54,.03-.19,.13-.36,.28-.48,.15-.12,.35-.17,.54-.15,.19,.02,.37,.12,.49,.27l2.5,3.24c.1,.13,.16,.29,.16,.46s-.05,.33-.16,.46l-2.5,3.24c-.12,.16-.3,.26-.5,.29-.2,.03-.4-.03-.55-.15h0Z"/><path class="d" d="M3.71,3.15c.08,.06,.14,.13,.19,.22,.05,.09,.08,.18,.09,.28,.01,.1,0,.2-.02,.29-.03,.1-.07,.18-.13,.26L1.7,6.98l2.15,2.79c.06,.08,.11,.17,.14,.26,.03,.1,.04,.2,.02,.3-.01,.1-.04,.2-.09,.28-.05,.09-.12,.16-.19,.22-.08,.06-.17,.11-.27,.13s-.2,.03-.3,.02c-.1-.01-.19-.05-.28-.1-.09-.05-.16-.12-.22-.2L.16,7.44c-.1-.13-.16-.29-.16-.46s.05-.33,.16-.46L2.66,3.28c.12-.16,.3-.26,.5-.29,.2-.03,.4,.03,.55,.15Z"/></g></g></svg>