<?xml version="1.0" encoding="UTF-8"?><svg xmlns="http://www.w3.org/2000/svg" viewBox="0 0 18 14.38"><defs><style>.d{fill:#fff;}</style></defs><g id="a"/><g id="b"><g id="c"><path class="d" d="M5.55,14.26c-.36,0-.66-.25-.73-.59-.73,.39-1.41,.59-2.07,.59-1.55,0-2.75-1.1-2.75-2.74,0-.72,.25-1.36,.71-1.84,.46-.48,1.13-.8,1.94-.9,.71-.08,1.43-.04,2.13,.12-.03-.31-.13-.54-.29-.7-.2-.19-.51-.31-.98-.33-.76-.04-1.26,.07-1.53,.26-.08,.06-.17,.1-.27,.12-.1,.02-.2,.03-.3,0-.1-.02-.19-.05-.28-.1-.08-.05-.16-.12-.21-.2-.06-.08-.1-.17-.12-.27-.02-.1-.02-.2,0-.3,.02-.1,.06-.19,.11-.27,.05-.08,.12-.15,.21-.21,.56-.39,1.31-.56,2.23-.54h.23c.81,.05,1.47,.3,1.94,.75,.47,.45,.73,1.07,.76,1.83h0v4.56c0,.18-.06,.36-.18,.49-.12,.14-.28,.23-.46,.25h-.1Zm-2.71-3.96c-.47,.06-.8,.21-1.02,.42-.21,.21-.32,.49-.32,.83,0,.4,.13,.71,.34,.92,.21,.21,.52,.33,.91,.33,.5,0,1.14-.23,1.92-.74l.13-.09v-1.48l-.13-.04c-.59-.17-1.21-.22-1.82-.15h0Z"/><path class="d" d="M13.57,.6c-.06-.17-.17-.33-.32-.43C13.1,.06,12.92,0,12.73,0c-.18,0-.37,.05-.52,.16-.15,.1-.27,.25-.34,.42L7.1,13.15c-.05,.11-.07,.23-.07,.35,0,.12,.03,.24,.07,.35,.05,.11,.12,.21,.2,.29,.09,.08,.19,.15,.3,.19,.11,.04,.23,.06,.35,.06s.24-.03,.35-.08c.11-.05,.21-.12,.29-.21,.08-.09,.14-.19,.18-.31l1.03-2.71h5.5l.94,2.69c.04,.11,.1,.21,.18,.3,.08,.09,.17,.16,.28,.21,.11,.05,.22,.08,.34,.09,.12,0,.24,0,.35-.05,.11-.04,.21-.1,.3-.18,.09-.08,.16-.17,.21-.28,.05-.11,.08-.22,.09-.34,0-.12,0-.24-.05-.35L13.57,.6h0Zm1.12,8.67h-4.19l2.19-5.75,2.01,5.75h0Z"/></g></g></svg>