<?xml version="1.0" encoding="UTF-8"?><svg xmlns="http://www.w3.org/2000/svg" viewBox="0 0 17.29 11.32"><defs><style>.d{fill:#fff;}</style></defs><g id="a"/><g id="b"><g id="c"><path class="d" d="M.81,0C.6,0,.39,.08,.24,.24c-.15,.15-.24,.36-.24,.57s.09,.42,.24,.57c.15,.15,.36,.24,.57,.24h15.67c.21,0,.42-.08,.57-.24,.15-.15,.24-.36,.24-.57s-.09-.42-.24-.57c-.15-.15-.36-.24-.57-.24H.81Z"/><path class="d" d="M.81,3.23c-.21,0-.42,.09-.57,.24-.15,.15-.24,.36-.24,.57s.09,.42,.24,.57c.15,.15,.36,.24,.57,.24h15.67c.21,0,.42-.08,.57-.24,.15-.15,.24-.36,.24-.57s-.09-.42-.24-.57c-.15-.15-.36-.24-.57-.24H.81Z"/><path class="d" d="M0,7.28c0-.22,.09-.42,.24-.57,.15-.15,.36-.24,.57-.24h15.67c.21,0,.42,.09,.57,.24,.15,.15,.24,.36,.24,.57s-.09,.42-.24,.57c-.15,.15-.36,.24-.57,.24H.81c-.21,0-.42-.08-.57-.24-.15-.15-.24-.36-.24-.57Z"/><path class="d" d="M.81,9.7c-.21,0-.42,.08-.57,.24-.15,.15-.24,.36-.24,.57s.09,.42,.24,.57c.15,.15,.36,.24,.57,.24H11.07c.21,0,.42-.09,.57-.24,.15-.15,.24-.36,.24-.57s-.09-.42-.24-.57c-.15-.15-.36-.24-.57-.24H.81Z"/></g></g></svg>