<?xml version="1.0" encoding="UTF-8"?><svg xmlns="http://www.w3.org/2000/svg" viewBox="0 0 16.01 18.82"><defs><style>.d{fill:#fff;}</style></defs><g id="a"/><g id="b"><g id="c"><path class="d" d="M6.59,3.29c0,.79-.29,1.56-.8,2.16-.52,.6-1.24,.99-2.02,1.1v2.39h5.88c.56,0,1.1-.22,1.5-.62,.4-.4,.62-.94,.62-1.5v-.37c-.76-.23-1.41-.72-1.83-1.39-.42-.67-.59-1.46-.48-2.25,.11-.78,.51-1.5,1.1-2.01C11.15,.29,11.92,0,12.71,0c.83,0,1.64,.31,2.25,.88,.61,.57,.98,1.35,1.04,2.18,.06,.83-.2,1.66-.72,2.3-.52,.65-1.27,1.08-2.1,1.19v.27c0,.94-.37,1.83-1.03,2.5-.66,.66-1.56,1.03-2.5,1.03H3.76v1.92c.8,.12,1.54,.52,2.06,1.15,.52,.62,.79,1.42,.76,2.23-.03,.81-.36,1.58-.92,2.17-.56,.59-1.32,.94-2.13,1-.81,.06-1.61-.18-2.26-.68-.64-.5-1.08-1.21-1.23-2.01-.15-.8,0-1.62,.43-2.32,.42-.69,1.09-1.2,1.87-1.44V6.45c-.76-.23-1.41-.72-1.83-1.39C.1,4.4-.07,3.6,.04,2.82c.11-.78,.51-1.5,1.1-2.01C1.74,.29,2.5,0,3.29,0,4.17,0,5.01,.35,5.62,.96c.62,.62,.96,1.46,.96,2.33Z"/></g></g></svg>