<?xml version="1.0" encoding="UTF-8"?><svg xmlns="http://www.w3.org/2000/svg" viewBox="0 0 342.86 347.82">
  <defs>
    <style>
      .d {
        fill-rule: evenodd;
        fill: white
      }
    </style>
  </defs>
  <path class="d"
    d="M289.98,347.3c24.05-23.99,40.14-53.99,44.73-83.4,4.59-29.41-2.69-55.82-20.24-73.41l-90.68,90.47,66.19,66.35Z" />
  <path class="d"
    d="M52.88,347.82c-24.05-23.99-40.14-53.99-44.73-83.4-4.59-29.41,2.69-55.81,20.24-73.41l90.68,90.47-66.19,66.35Z" />
  <path class="d"
    d="M0,91.14c.04,33.97,13.57,66.54,37.62,90.53h0l90.67,90.45c23.99-24.05,37.45-56.65,37.41-90.62-.04-33.97-13.57-66.54-37.62-90.53h0L37.41,.52C13.42,24.57-.04,57.16,0,91.14Z" />
  <path class="d"
    d="M342.86,90.62c-.04,33.97-13.57,66.54-37.62,90.53h0l-90.67,90.46c-23.99-24.05-37.45-56.65-37.41-90.62,.04-33.97,13.57-66.54,37.62-90.53h0L305.45,0c23.99,24.05,37.45,56.65,37.41,90.62Z" />
</svg>